<?xml version="1.0" encoding="UTF-8" standalone="no"?>
<!-- Created with Inkscape (http://www.inkscape.org/) -->

<svg
   width="128"
   height="128"
   viewBox="0 0 128 128"
   version="1.1"
   id="svg1"
   inkscape:version="1.3.2 (091e20ef0f, 2023-11-25)"
   sodipodi:docname="io.github.fastrizwaan.WineCharm.svg"
   xml:space="preserve"
   inkscape:export-filename="default.png"
   inkscape:export-xdpi="96"
   inkscape:export-ydpi="96"
   xmlns:inkscape="http://www.inkscape.org/namespaces/inkscape"
   xmlns:sodipodi="http://sodipodi.sourceforge.net/DTD/sodipodi-0.dtd"
   xmlns:xlink="http://www.w3.org/1999/xlink"
   xmlns="http://www.w3.org/2000/svg"
   xmlns:svg="http://www.w3.org/2000/svg"><sodipodi:namedview
     id="namedview1"
     pagecolor="#ffffff"
     bordercolor="#000000"
     borderopacity="1"
     inkscape:showpageshadow="false"
     inkscape:pageopacity="0.0"
     inkscape:pagecheckerboard="false"
     inkscape:deskcolor="#5e5e5e"
     inkscape:document-units="px"
     borderlayer="true"
     inkscape:zoom="1"
     inkscape:cx="17.5"
     inkscape:cy="-117"
     inkscape:window-width="960"
     inkscape:window-height="1004"
     inkscape:window-x="20"
     inkscape:window-y="20"
     inkscape:window-maximized="0"
     inkscape:current-layer="g198" /><defs
     id="defs1"><linearGradient
       id="linearGradient15"
       inkscape:collect="always"><stop
         style="stop-color:#f754cd;stop-opacity:1;"
         offset="0.57787383"
         id="stop20" /><stop
         style="stop-color:#c50000;stop-opacity:1;"
         offset="1"
         id="stop21" /></linearGradient><inkscape:path-effect
       effect="spiro"
       id="path-effect209"
       is_visible="true"
       lpeversion="1" /><inkscape:path-effect
       effect="spiro"
       id="path-effect207"
       is_visible="true"
       lpeversion="1" /><inkscape:path-effect
       effect="spiro"
       id="path-effect201"
       is_visible="true"
       lpeversion="1" /><inkscape:path-effect
       effect="spiro"
       id="path-effect199"
       is_visible="true"
       lpeversion="1" /><inkscape:path-effect
       effect="spiro"
       id="path-effect193"
       is_visible="true"
       lpeversion="1" /><inkscape:path-effect
       effect="spiro"
       id="path-effect191"
       is_visible="true"
       lpeversion="1" /><inkscape:path-effect
       effect="spiro"
       id="path-effect185"
       is_visible="true"
       lpeversion="1" /><inkscape:path-effect
       effect="spiro"
       id="path-effect183"
       is_visible="true"
       lpeversion="1" /><inkscape:path-effect
       effect="spiro"
       id="path-effect157"
       is_visible="true"
       lpeversion="1" /><inkscape:path-effect
       effect="spiro"
       id="path-effect155"
       is_visible="true"
       lpeversion="1" /><inkscape:path-effect
       effect="spiro"
       id="path-effect153"
       is_visible="true"
       lpeversion="1" /><inkscape:path-effect
       effect="spiro"
       id="path-effect151"
       is_visible="true"
       lpeversion="1" /><inkscape:path-effect
       effect="spiro"
       id="path-effect149"
       is_visible="true"
       lpeversion="1" /><inkscape:path-effect
       effect="spiro"
       id="path-effect145"
       is_visible="true"
       lpeversion="1" /><inkscape:path-effect
       effect="spiro"
       id="path-effect144"
       is_visible="true"
       lpeversion="1" /><inkscape:path-effect
       effect="spiro"
       id="path-effect143"
       is_visible="true"
       lpeversion="1" /><radialGradient
       id="SVGID_1_"
       cx="63.951099"
       cy="49.576302"
       r="25.281401"
       gradientTransform="matrix(-0.00285007,1.0506166,-1.0946374,-0.00296947,121.16614,-17.475182)"
       gradientUnits="userSpaceOnUse">
	<stop
   offset="0.4039"
   style="stop-color:#AF0D1A"
   id="stop14" />
	<stop
   offset="0.5347"
   style="stop-color:#AB0C19"
   id="stop15" />
	<stop
   offset="0.6675"
   style="stop-color:#9F0B17"
   id="stop16" />
	<stop
   offset="0.8013"
   style="stop-color:#8A0813"
   id="stop17" />
	<stop
   offset="0.9351"
   style="stop-color:#6E050D"
   id="stop18" />
	<stop
   offset="0.9597"
   style="stop-color:#68040C"
   id="stop19" />
</radialGradient><radialGradient
       inkscape:collect="always"
       xlink:href="#linearGradient15"
       id="radialGradient21"
       cx="-365.87762"
       cy="-121.11665"
       fx="-365.87762"
       fy="-121.11665"
       r="129.80531"
       gradientTransform="matrix(1,0,0,1.4333077,0,52.480773)"
       gradientUnits="userSpaceOnUse" /><filter
       inkscape:collect="always"
       style="color-interpolation-filters:sRGB"
       id="filter10"
       x="-0.014686077"
       y="-0.010246284"
       width="1.0293722"
       height="1.0204926"><feGaussianBlur
         inkscape:collect="always"
         stdDeviation="1.588609"
         id="feGaussianBlur10" /></filter></defs><g
     inkscape:label="Layer 1"
     inkscape:groupmode="layer"
     id="layer1"><g
       transform="matrix(0.16922939,0,0,0.16922938,153.59195,-31.640906)"
       id="g13"><g
         fill="#339900"
         transform="matrix(-0.89879631,0,0,-0.89879641,-266.80223,1309.9756)"
         id="g10"
         style="opacity:1;fill:#ffc300;fill-opacity:1;stroke:none;stroke-width:15.9326;stroke-dasharray:none;stroke-opacity:1"><g
           id="g11"><g
             id="g209"
             transform="translate(-1183.4106)"><g
               id="g198"
               transform="rotate(-90,908.15466,-201.55695)"><rect
                 style="fill:#ffffff;fill-opacity:1;stroke:none;stroke-width:16.6641;stroke-opacity:1"
                 id="rect1"
                 width="259.61063"
                 height="372.1019"
                 x="-495.68292"
                 y="-307.1676"
                 transform="rotate(-90)"
                 ry="111.09398" /><rect
                 style="fill:url(#radialGradient21);fill-opacity:1;stroke:none;stroke-width:16.6641;stroke-opacity:1;filter:url(#filter10)"
                 id="rect15"
                 width="259.61063"
                 height="372.1019"
                 x="-495.68292"
                 y="-307.1676"
                 transform="rotate(-90)"
                 ry="111.09398" /><path
                 id="path195"
                 d="m -278.91751,166.40656 c -8e-5,-26.48223 10.57364,-50.43523 27.63291,-67.724908 l -0.0186,-0.019 129.54623,-153.04844 128.34958,153.04855 -0.046,0.0468 c 17.77043,17.372448 28.8575,41.814228 28.85753,68.918968 -5e-5,52.70583 -41.84431,95.43344 -93.46043,95.43344 -24.93501,0 -47.56869,-9.99153 -64.32676,-26.24191 -16.62439,15.53649 -38.762,25.01966 -63.07428,25.01956 -51.61623,-3e-5 -93.46031,-42.72747 -93.46052,-95.43359 z"
                 style="fill:#f8682c;fill-opacity:1;stroke:none;stroke-width:12.8448;stroke-dasharray:none;stroke-opacity:1"
                 sodipodi:nodetypes="scccccsscsss" /><path
                 id="path209"
                 d="m -279.92727,566.19389 c -8e-5,26.48226 10.57364,50.43525 27.63289,67.72493 l -0.0185,0.019 L -123.7767,787.15066 5.58294,633.9377 5.53684,633.891 c 17.77041,-17.37246 28.85749,-41.81424 28.85752,-68.91897 -7e-5,-52.70584 -41.84432,-95.43348 -93.46045,-95.43348 -24.935,0 -47.56869,9.99155 -64.32677,26.24193 -16.6244,-15.53651 -38.76201,-25.01966 -63.07429,-25.01955 -51.61622,3e-5 -93.4603,42.72746 -93.46052,95.43359 z"
                 style="fill:#ffc300;fill-opacity:1;stroke:none;stroke-width:12.8448;stroke-dasharray:none;stroke-opacity:1"
                 sodipodi:nodetypes="scccccsscsss" /><path
                 id="path1"
                 d="m -322.23768,208.71686 c -26.48223,-8e-5 -50.43521,10.57363 -67.72489,27.6329 l -0.019,-0.0185 -153.04842,129.54622 153.04855,128.3496 0.0468,-0.046 c 17.37244,17.77044 41.8142,28.8575 68.91894,28.85754 52.70583,-7e-5 95.43345,-41.84431 95.43345,-93.46045 0,-24.93501 -9.99153,-47.56869 -26.24192,-64.32678 15.53649,-16.62438 25.01966,-38.76197 25.01956,-63.07427 -2e-5,-51.61624 -42.72747,-93.46031 -95.43359,-93.46052 z"
                 style="fill:#00b4f1;fill-opacity:1;stroke:none;stroke-width:12.8448;stroke-dasharray:none;stroke-opacity:1"
                 sodipodi:nodetypes="scccccsscsss" /><path
                 id="path2"
                 d="m 77.54967,524.04794 c 26.48224,8e-5 50.43524,-10.57364 67.72492,-27.6329 l 0.019,0.0186 153.21285,-128.5362 -153.21296,-129.35966 -0.0468,0.046 c -17.37242,-17.77037 -41.8142,-28.85745 -68.91891,-28.85749 -52.70585,7e-5 -95.43348,41.84432 -95.43348,93.46046 0,24.93501 9.99154,47.56869 26.24193,64.32677 -15.5365,16.6244 -25.01967,38.76201 -25.01957,63.07429 4e-5,51.61623 42.72746,93.46031 95.4336,93.46053 z"
                 style="fill:#91c300;fill-opacity:1;stroke:none;stroke-width:12.8448;stroke-dasharray:none;stroke-opacity:1"
                 sodipodi:nodetypes="scccccsscsss" /><path
                 style="color:#000000;fill:#ffffff;fill-opacity:0.97925;stroke:none;stroke-width:41.5247;stroke-dasharray:none;stroke-opacity:1;opacity:0.9"
                 d="M -192.08072,420.47924 V 311.59365 c 0,0 62.33092,-22.67339 88.49961,-21.347 25.999856,1.30101 48.999746,4.51366 69.762806,28.70162 15.60521,18.21397 16.99994,36.40141 16.99994,36.40141 l 52.99975,-0.15925 c 3.39185,-27.34359 17.16732,-59.10832 27.86833,-52.70372 v 127.44472 c -10.69233,5.70472 -24.22074,-26.2573 -27.86833,-51.64165 l -52.99975,-0.18583 c 0,0 -1.02634,22.06386 -16.99994,38.87061 -9.86837,10.38142 -33.31562,27.66611 -69.762806,25.19687 -31.97355,-2.12407 -88.49961,-21.69219 -88.49961,-21.69219 z"
                 id="path5-1"
                 sodipodi:nodetypes="ccccccccccccc" /><path
                 style="color:#000000;display:inline;fill:#800000;fill-opacity:1;stroke:none;stroke-width:32.7881;stroke-dasharray:none;stroke-opacity:1;-inkscape-stroke:none;opacity:0.9"
                 d="m -98.172214,305.52802 c 20.28283,1.03969 38.22532,3.60706 54.42286,22.93676 21.58467,25.80764 15.18224,61.97336 0,78.33723 -7.69846,8.29625 -25.98996,22.10923 -54.42286,20.13595 z"
                 id="path7"
                 sodipodi:nodetypes="ccccc"
                 inkscape:label="path7" /></g></g></g></g></g></g></svg>
