<?xml version="1.0" encoding="UTF-8" standalone="no"?>
<!-- Created with Inkscape (http://www.inkscape.org/) -->

<svg
   width="128"
   height="128"
   viewBox="0 0 128 128"
   version="1.1"
   id="svg1"
   inkscape:version="1.3.2 (091e20ef0f, 2023-11-25)"
   sodipodi:docname="io.github.fastrizwaan.WineCharm.svg"
   xml:space="preserve"
   inkscape:export-filename="default.png"
   inkscape:export-xdpi="96"
   inkscape:export-ydpi="96"
   xmlns:inkscape="http://www.inkscape.org/namespaces/inkscape"
   xmlns:sodipodi="http://sodipodi.sourceforge.net/DTD/sodipodi-0.dtd"
   xmlns:xlink="http://www.w3.org/1999/xlink"
   xmlns="http://www.w3.org/2000/svg"
   xmlns:svg="http://www.w3.org/2000/svg"><sodipodi:namedview
     id="namedview1"
     pagecolor="#ffffff"
     bordercolor="#000000"
     borderopacity="1"
     inkscape:showpageshadow="false"
     inkscape:pageopacity="0.0"
     inkscape:pagecheckerboard="false"
     inkscape:deskcolor="#5e5e5e"
     inkscape:document-units="px"
     borderlayer="true"
     inkscape:zoom="1"
     inkscape:cx="37"
     inkscape:cy="97"
     inkscape:window-width="1920"
     inkscape:window-height="1004"
     inkscape:window-x="0"
     inkscape:window-y="0"
     inkscape:window-maximized="1"
     inkscape:current-layer="g198" /><defs
     id="defs1"><linearGradient
       id="linearGradient15"
       inkscape:collect="always"><stop
         style="stop-color:#f754cd;stop-opacity:1;"
         offset="0.57787383"
         id="stop20" /><stop
         style="stop-color:#c50000;stop-opacity:1;"
         offset="1"
         id="stop21" /></linearGradient><inkscape:path-effect
       effect="spiro"
       id="path-effect209"
       is_visible="true"
       lpeversion="1" /><inkscape:path-effect
       effect="spiro"
       id="path-effect207"
       is_visible="true"
       lpeversion="1" /><inkscape:path-effect
       effect="spiro"
       id="path-effect201"
       is_visible="true"
       lpeversion="1" /><inkscape:path-effect
       effect="spiro"
       id="path-effect199"
       is_visible="true"
       lpeversion="1" /><inkscape:path-effect
       effect="spiro"
       id="path-effect193"
       is_visible="true"
       lpeversion="1" /><inkscape:path-effect
       effect="spiro"
       id="path-effect191"
       is_visible="true"
       lpeversion="1" /><inkscape:path-effect
       effect="spiro"
       id="path-effect185"
       is_visible="true"
       lpeversion="1" /><inkscape:path-effect
       effect="spiro"
       id="path-effect183"
       is_visible="true"
       lpeversion="1" /><inkscape:path-effect
       effect="spiro"
       id="path-effect157"
       is_visible="true"
       lpeversion="1" /><inkscape:path-effect
       effect="spiro"
       id="path-effect155"
       is_visible="true"
       lpeversion="1" /><inkscape:path-effect
       effect="spiro"
       id="path-effect153"
       is_visible="true"
       lpeversion="1" /><inkscape:path-effect
       effect="spiro"
       id="path-effect151"
       is_visible="true"
       lpeversion="1" /><inkscape:path-effect
       effect="spiro"
       id="path-effect149"
       is_visible="true"
       lpeversion="1" /><inkscape:path-effect
       effect="spiro"
       id="path-effect145"
       is_visible="true"
       lpeversion="1" /><inkscape:path-effect
       effect="spiro"
       id="path-effect144"
       is_visible="true"
       lpeversion="1" /><inkscape:path-effect
       effect="spiro"
       id="path-effect143"
       is_visible="true"
       lpeversion="1" /><radialGradient
       id="SVGID_1_"
       cx="63.951099"
       cy="49.576302"
       r="25.281401"
       gradientTransform="matrix(-0.00285007,1.0506166,-1.0946374,-0.00296947,121.16614,-17.475182)"
       gradientUnits="userSpaceOnUse">
	<stop
   offset="0.4039"
   style="stop-color:#AF0D1A"
   id="stop14" />
	<stop
   offset="0.5347"
   style="stop-color:#AB0C19"
   id="stop15" />
	<stop
   offset="0.6675"
   style="stop-color:#9F0B17"
   id="stop16" />
	<stop
   offset="0.8013"
   style="stop-color:#8A0813"
   id="stop17" />
	<stop
   offset="0.9351"
   style="stop-color:#6E050D"
   id="stop18" />
	<stop
   offset="0.9597"
   style="stop-color:#68040C"
   id="stop19" />
</radialGradient><radialGradient
       inkscape:collect="always"
       xlink:href="#linearGradient15"
       id="radialGradient21"
       cx="-365.87762"
       cy="-121.11665"
       fx="-365.87762"
       fy="-121.11665"
       r="129.80531"
       gradientTransform="matrix(1,0,0,1.4333077,0,52.480773)"
       gradientUnits="userSpaceOnUse" /></defs><g
     inkscape:label="Layer 1"
     inkscape:groupmode="layer"
     id="layer1"><g
       transform="matrix(0.16922939,0,0,0.16922938,153.59195,-31.640906)"
       id="g13"><g
         fill="#339900"
         transform="matrix(-0.89879631,0,0,-0.89879641,-266.80223,1309.9756)"
         id="g10"
         style="opacity:1;fill:#ffc300;fill-opacity:1;stroke:none;stroke-width:15.9326;stroke-dasharray:none;stroke-opacity:1"><g
           id="g11"><g
             id="g209"
             transform="translate(-1183.4106)"><g
               id="g198"
               transform="rotate(-90,908.15466,-201.55695)"><rect
                 style="fill:#ffffff;fill-opacity:1;stroke:none;stroke-width:16.6641;stroke-opacity:1"
                 id="rect1"
                 width="259.61063"
                 height="372.1019"
                 x="-495.68292"
                 y="-307.1676"
                 transform="rotate(-90)"
                 ry="111.09398" /><rect
                 style="fill:url(#radialGradient21);fill-opacity:1;stroke:none;stroke-width:16.6641;stroke-opacity:1"
                 id="rect15"
                 width="259.61063"
                 height="372.1019"
                 x="-495.68292"
                 y="-307.1676"
                 transform="rotate(-90)"
                 ry="111.09398" /><path
                 id="path195"
                 d="m -278.91751,166.40656 c -8e-5,-26.48223 10.57364,-50.43523 27.63291,-67.724908 l -0.0186,-0.019 129.54623,-153.04844 128.34958,153.04855 -0.046,0.0468 c 17.77043,17.372448 28.8575,41.814228 28.85753,68.918968 -5e-5,52.70583 -41.84431,95.43344 -93.46043,95.43344 -24.93501,0 -47.56869,-9.99153 -64.32676,-26.24191 -16.62439,15.53649 -38.762,25.01966 -63.07428,25.01956 -51.61623,-3e-5 -93.46031,-42.72747 -93.46052,-95.43359 z"
                 style="fill:#f8682c;fill-opacity:1;stroke:none;stroke-width:12.8448;stroke-dasharray:none;stroke-opacity:1"
                 sodipodi:nodetypes="scccccsscsss" /><path
                 id="path209"
                 d="m -279.92727,566.19389 c -8e-5,26.48226 10.57364,50.43525 27.63289,67.72493 l -0.0185,0.019 L -123.7767,787.15066 5.58294,633.9377 5.53684,633.891 c 17.77041,-17.37246 28.85749,-41.81424 28.85752,-68.91897 -7e-5,-52.70584 -41.84432,-95.43348 -93.46045,-95.43348 -24.935,0 -47.56869,9.99155 -64.32677,26.24193 -16.6244,-15.53651 -38.76201,-25.01966 -63.07429,-25.01955 -51.61622,3e-5 -93.4603,42.72746 -93.46052,95.43359 z"
                 style="fill:#ffc300;fill-opacity:1;stroke:none;stroke-width:12.8448;stroke-dasharray:none;stroke-opacity:1"
                 sodipodi:nodetypes="scccccsscsss" /><path
                 id="path1"
                 d="m -322.23768,208.71686 c -26.48223,-8e-5 -50.43521,10.57363 -67.72489,27.6329 l -0.019,-0.0185 -153.04842,129.54622 153.04855,128.3496 0.0468,-0.046 c 17.37244,17.77044 41.8142,28.8575 68.91894,28.85754 52.70583,-7e-5 95.43345,-41.84431 95.43345,-93.46045 0,-24.93501 -9.99153,-47.56869 -26.24192,-64.32678 15.53649,-16.62438 25.01966,-38.76197 25.01956,-63.07427 -2e-5,-51.61624 -42.72747,-93.46031 -95.43359,-93.46052 z"
                 style="fill:#00b4f1;fill-opacity:1;stroke:none;stroke-width:12.8448;stroke-dasharray:none;stroke-opacity:1"
                 sodipodi:nodetypes="scccccsscsss" /><path
                 id="path2"
                 d="m 77.54967,524.04794 c 26.48224,8e-5 50.43524,-10.57364 67.72492,-27.6329 l 0.019,0.0186 153.21285,-128.5362 -153.21296,-129.35966 -0.0468,0.046 c -17.37242,-17.77037 -41.8142,-28.85745 -68.91891,-28.85749 -52.70585,7e-5 -95.43348,41.84432 -95.43348,93.46046 0,24.93501 9.99154,47.56869 26.24193,64.32677 -15.5365,16.6244 -25.01967,38.76201 -25.01957,63.07429 4e-5,51.61623 42.72746,93.46031 95.4336,93.46053 z"
                 style="fill:#91c300;fill-opacity:1;stroke:none;stroke-width:12.8448;stroke-dasharray:none;stroke-opacity:1"
                 sodipodi:nodetypes="scccccsscsss" /><g
                 id="g50"
                 style="fill:#f9f9f9;fill-opacity:1;stroke:none;stroke-width:15.9326;stroke-dasharray:none;stroke-opacity:1"
                 transform="matrix(0,-2.6063855,2.6063852,0,-230.18816,539.67621)"><path
                   style="opacity:0.5;fill:#f9f9f9;stroke-width:1.01869"
                   d="m 45.604384,12.566876 c 0,0 3.524334,3.367895 10.515195,5.832498 5.740926,2.023943 12.243629,1.457788 18.254919,0.499158 C 86.993751,16.88612 87.350294,11.39029 87.350294,11.39029 l 1.60953,4.29887 c 0,0 7.120641,19.21249 6.580735,29.959667 -0.499158,10.064654 -1.731771,18.968002 -11.012038,27.005467 -6.988209,6.04083 -13.966236,6.580735 -13.966236,6.580735 l 0.132422,20.557158 c 0,0 9.137649,0.407483 14.506143,3.891393 4.848966,3.14777 5.643543,6.18346 5.643543,8.19027 0,2.017 -1.884577,12.3567 -24.713415,12.09183 -22.828838,-0.26484 -24.183696,-11.4195 -24.183696,-13.43651 0,-2.01697 2.159622,-5.8982 8.597741,-8.33287 6.040831,-2.281863 11.287083,-2.01701 11.287083,-2.01701 V 78.837739 c 0,0 -8.465312,-2.149435 -14.913618,-8.332882 C 42.935411,66.684771 36.30374,58.01572 37.251122,43.906868 38.066073,31.539973 46.329286,10.251106 46.329286,10.251106 Z"
                   id="path31"
                   sodipodi:nodetypes="csscccccccsssccccccc" /><path
                   style="opacity:0.7;fill:#e5e5e5;fill-opacity:0.7977615;stroke-width:1.01417"
                   d="M 46.037324,10.337306 C 49.846962,6.5774761 53.988669,5.2183451 59.139946,4.6175463 73.012983,3.2460025 79.786436,5.0384059 87.813797,10.872426 l 1.60953,4.26077 c 0,0 7.120649,19.042217 6.580743,29.694147 -0.499158,9.975454 -1.731771,18.799896 -11.012043,26.766123 -6.98821,5.987294 -13.96624,6.522415 -13.96624,6.522415 l 0.0611,20.334588 c 0,0 9.18859,1.03995 14.56727,4.503081 4.84896,3.11986 5.653732,5.52286 5.653732,7.522 0,1.99912 -1.884582,12.24717 -24.713422,11.98467 -22.828843,-0.26253 -24.183693,-11.31831 -24.183693,-13.31743 0,-1.99913 2.15962,-5.84595 8.59774,-8.25905 6.040833,-2.261631 11.215773,-2.423171 11.215773,-2.423171 l 0.0713,-20.738455 c 0,0 -8.465313,-2.130389 -14.913613,-8.259034 -3.98307,-3.786229 -10.61474,-12.378447 -9.66736,-26.362259 0.81495,-12.267386 8.32271,-32.763515 8.32271,-32.763515 z"
                   id="path32"
                   sodipodi:nodetypes="czcccccccsssccccccc" /><g
                   id="g33"
                   transform="matrix(1.0186898,0,0,1.0186898,1.9331526,-2.0462885)"
                   style="fill:#f9f9f9">
	<path
   style="fill:#eeeeec"
   d="M 58.59,79.03 C 58.3,78.94 51.82,77.37 47.42,73.93 38.86,67.23 34.8,59.84 34.28,49.98 c -0.31,-5.82 1.166078,-11.11489 2.866078,-18.04489 1.74,-7.06 6.036128,-19.270611 6.056128,-19.330611 0,0 0.659396,-1.332724 0.959396,-1.182724 0.63,0.32 0.403456,1.838108 0.403456,1.838108 -0.48,1.78 -3.91898,12.185227 -5.61898,19.145227 C 37.276078,39.21511 36,44.31 36.29,49.86 c 0.49,9.23 4.3,16.17 12.37,22.48 4.1,3.21 9.31,4.47 10.02,4.81 0.71,0.34 1.63,0.5 1.5,1.41 -0.14,0.94 -1.59,0.47 -1.59,0.47 z"
   id="path33"
   sodipodi:nodetypes="ccccccccccscc" />
</g><g
                   id="g34"
                   style="fill:#f9f9f9"
                   transform="matrix(1.0186898,0,0,1.0186898,0.89408903,-2.1277837)">
	<path
   style="fill:#eeeeec"
   d="M 68.62,79.28 C 67.87,79.35 67.14,79.22 67.08,78.49 67,77.59 68.12,77.53 68.12,77.53 68.86,77.26 72.65,76.95 76.4,74.7 86.97,68.36 92.09,58.41 91.43,45.51 90.51,27.72 83.53,14.17 83.46,14.04 l 1.32,-1.94 c 0.07,0.14 7.7,15.08 8.65,33.31 0.71,13.69 -4.4,24.3 -15.65,31.04 -4.1,2.46 -8.77,2.79 -9.16,2.83 z"
   id="path34" />
</g><g
                   id="g35"
                   transform="matrix(1.0186898,0,0,1.0186898,1.9331526,0.0573649)"
                   style="fill:#f9f9f9">
	<path
   style="fill:#eeeeec"
   d="m 65.13,21.92 c -0.25,0 -0.5,0 -0.75,-0.01 -8.8,-0.13 -16.32,-2.61 -19.96,-6.13 -1.3,-1.25 -1.48,-2.12 -1.55,-3.5 -0.13,-2.37 2.69,-8.29 21.06,-8.19 12.11,0.06 21.1,3.81 21.15,8.51 0.02,1.42 -0.23,2.58 -1.58,3.92 -3.45,3.39 -10.29,5.4 -18.37,5.4 z M 63.03,6.58 c -12.04,0.1 -17.2,3.42 -17.15,5.57 0.01,0.55 0.05,0.86 0.71,1.54 2.4,2.5 8.85,5.08 17.84,5.21 v 0 c 8.96,0.15 14.65,-2.25 16.97,-4.54 0.75,-0.73 1.13,-0.97 1.13,-1.55 0,-2.27 -4.87,-5.94 -17.75,-6.22 -0.59,0 -1.18,-0.01 -1.75,-0.01 z"
   id="path35" />
</g><path
                   style="fill:#f9f9f9;stroke-width:0.806632"
                   d="m 68.325613,79.184037 c -1.373245,0 -1.092209,1.680838 -1.162467,12.855867 -0.05109,8.913536 0.530135,10.502696 1.104984,10.594366 0.581233,0.0815 1.104982,-0.59084 1.104982,-10.003534 0.0063,-10.920349 0.217164,-13.446699 -1.047499,-13.446699 z"
                   id="path37" /><path
                   style="fill:#f9f9f9;stroke-width:1.01869"
                   d="m 70.297425,99.87364 c -0.835327,0.0714 0.0713,1.89475 -1.059439,3.34127 -0.896444,1.14095 -2.577284,1.82346 -2.505975,3.10703 0.0713,1.29372 6.672418,0.45841 6.672418,-1.97626 0,-0.94739 -0.692709,-1.60954 -1.365044,-2.50599 -0.672336,-0.89644 -1.324298,-2.00681 -1.74196,-1.96605 z"
                   id="path38" /><path
                   style="fill:#f9f9f9;stroke-width:1.01869"
                   d="m 55.047639,109.05203 c 0,0 2.903265,3.8914 11.84736,3.97288 9.025592,0.0815 11.256523,-2.6486 11.59269,-3.7284 0.244487,-0.81494 -2.811585,-5.08327 -3.188498,-5.01195 -0.376914,0.0714 -1.365044,4.03401 -8.343069,3.77934 -6.978027,-0.25468 -7.161391,-2.99495 -7.72167,-3.51447 -0.448224,-0.41768 -4.186814,4.5026 -4.186813,4.5026 z"
                   id="path39" /><path
                   style="fill:#f9f9f9;stroke-width:1.01869"
                   d="m 46.70457,107.15724 c -2.261492,0.29544 -2.36336,2.92366 -0.906635,5.30741 2.9542,4.85913 12.764182,8.18006 13.273528,5.54166 0.458413,-2.35318 -4.69616,-2.95422 -4.176631,-6.90671 0.376917,-2.88289 5.541676,-5.54169 4.095135,-7.05952 -1.436351,-1.51785 -3.636722,2.04757 -6.601109,2.73007 -2.587473,0.60104 -3.94233,0.163 -5.684288,0.38709 z"
                   id="path40" /><path
                   style="fill:#f9f9f9;stroke-width:1.01869"
                   d="m 79.47582,103.28624 c -1.263175,1.00852 2.505976,2.04757 2.353172,5.15456 -0.152803,3.10701 -3.259805,4.45167 -2.65878,5.30739 0.906633,1.29374 6.254756,-1.44655 6.071391,-5.6945 -0.152803,-3.47372 -4.624851,-5.67409 -5.765783,-4.76745 z"
                   id="path41" /><path
                   style="fill:#f9f9f9;stroke-width:1.01869"
                   d="m 78.110774,117.62938 c 0.458412,1.43636 6.489056,0.81495 9.331198,-3.25979 2.954201,-4.24794 0.906634,-7.81336 -0.224111,-7.43644 -1.140933,0.37691 0.458412,3.03569 -2.424482,5.83708 -2.893079,2.80142 -7.191948,3.24962 -6.682605,4.85915 z"
                   id="path42" /><path
                   style="fill:#eeeeec;stroke-width:1.01869;fill-opacity:1"
                   d="m 42.466818,109.541 c -0.264859,-0.24449 -0.743642,2.15962 0.06112,4.13587 0.682525,1.67067 4.176629,10.39064 25.110707,10.54344 23.287247,0.17319 24.479116,-9.80998 24.183694,-12.60121 -0.193552,-1.8438 -0.550093,-2.4754 -0.733457,-2.4754 -0.173176,-0.0105 -0.35654,1.6299 -0.509345,2.51617 -0.488971,2.77083 -3.219059,9.75905 -22.563978,9.91184 -17.602959,0.14258 -22.757531,-7.05949 -23.664164,-8.34306 -0.641776,-0.91683 -1.731771,-3.54503 -1.884576,-3.68765 z"
                   id="path43" /><path
                   style="fill:#aa0000;fill-opacity:1;stroke-width:1.06218"
                   d="m 39.522801,47.686505 3.260887,8.879809 11.960124,6.436798 15.305987,2.889126 15.221013,-13.224118 7.855551,-7.944954 c 0,0 -7.759956,-2.16698 -13.686909,-3.037965 -9.240949,-1.359591 -17.090445,-1.699484 -26.331395,0.02123 -11.354681,2.113734 -13.585258,5.98006 -13.585258,5.980062 z"
                   id="path44"
                   sodipodi:nodetypes="ccccccccsc" /><path
                   style="fill:#800000;stroke-width:1.05457"
                   d="m 60.297739,60.995113 c 10.60893,0.35855 12.053684,-5.842294 20.690575,-11.958773 8.63689,-6.116479 12.138049,-4.313174 12.138049,-4.313174 0,0 2.900052,13.15043 -7.107774,23.558993 -8.721255,9.079809 -24.69792,11.811131 -37.310524,1.128384 -9.353993,-7.919785 -9.185264,-21.724048 -9.185264,-21.724048 0,0 7.371411,12.855153 20.774938,13.308618 z"
                   id="path45" /><path
                   style="fill:#f9f9f9;stroke-width:1.01869"
                   d="m 47.865875,18.409004 c 0,0 -1.91721,7.976629 -3.730481,16.085399 7.089652,17.924769 4.154542,-0.583211 5.106367,-14.767855 -0.08758,-1.296485 -2.137036,-1.317544 -1.37589,-1.317544 z"
                   id="path46"
                   sodipodi:nodetypes="ccccc" /></g></g></g></g></g></g></g></svg>
