<?xml version="1.0" encoding="UTF-8" standalone="no"?>
<svg
   xml:space="preserve"
   width="128"
   height="128"
   version="1.1"
   id="svg31"
   sodipodi:docname="io.github.fastrizwaan.WineCharm.svg"
   xmlns:inkscape="http://www.inkscape.org/namespaces/inkscape"
   xmlns:sodipodi="http://sodipodi.sourceforge.net/DTD/sodipodi-0.dtd"
   xmlns:xlink="http://www.w3.org/1999/xlink"
   xmlns="http://www.w3.org/2000/svg"
   xmlns:svg="http://www.w3.org/2000/svg"><sodipodi:namedview
     id="namedview33"
     pagecolor="#ffffff"
     bordercolor="#000000"
     borderopacity="0.25"
     inkscape:showpageshadow="2"
     inkscape:pageopacity="0.0"
     inkscape:pagecheckerboard="0"
     inkscape:deskcolor="#d1d1d1" /><defs
     id="defs11"><radialGradient
       xlink:href="#a"
       id="b"
       cx="-365.878"
       cy="-121.117"
       r="129.805"
       fx="-365.878"
       fy="-121.117"
       gradientTransform="matrix(1 0 0 1.4333 0 52.48)"
       gradientUnits="userSpaceOnUse" /><linearGradient
       id="a"><stop
         offset=".578"
         style="stop-color:#f754cd;stop-opacity:1"
         id="stop3" /><stop
         offset="1"
         style="stop-color:#c50000;stop-opacity:1"
         id="stop5" /></linearGradient><filter
       id="c"
       width="1.0293793"
       height="1.0204976"
       x="-0.014689671"
       y="-0.010248803"
       style="color-interpolation-filters:sRGB"><feGaussianBlur
         stdDeviation="1.589"
         id="feGaussianBlur8" /></filter></defs><g
     fill="#390"
     style="opacity:1;fill:#ffc300;fill-opacity:1;stroke:none;stroke-width:15.9326;stroke-dasharray:none;stroke-opacity:1"
     transform="rotate(90 18.54 101.11)scale(.1521)"
     id="g29"><rect
       width="259.611"
       height="372.102"
       x="-495.683"
       y="-307.168"
       ry="111.094"
       style="fill:#fff;fill-opacity:1;stroke:none;stroke-width:16.6641;stroke-opacity:1"
       transform="rotate(-90)"
       id="rect13" /><rect
       width="259.611"
       height="372.102"
       x="-495.683"
       y="-307.168"
       ry="111.094"
       style="fill:url(#b);fill-opacity:1;stroke:none;stroke-width:16.6641;stroke-opacity:1;filter:url(#c)"
       transform="rotate(-90)"
       id="rect15" /><path
       d="M-278.918 166.407c0-26.483 10.574-50.436 27.633-67.725l-.018-.02 129.546-153.048L6.593 98.663l-.046.047c17.77 17.372 28.857 41.814 28.857 68.919 0 52.705-41.844 95.433-93.46 95.433-24.935 0-47.569-9.992-64.327-26.242-16.624 15.537-38.762 25.02-63.074 25.02-51.617 0-93.46-42.728-93.46-95.434z"
       style="fill:#f8682c;fill-opacity:1;stroke:none;stroke-width:12.8448;stroke-dasharray:none;stroke-opacity:1"
       id="path17" /><path
       d="M-279.927 566.194c0 26.482 10.573 50.435 27.633 67.725l-.019.019 128.536 153.213L5.583 633.938l-.046-.047c17.77-17.372 28.857-41.814 28.857-68.919 0-52.706-41.844-95.433-93.46-95.433-24.935 0-47.569 9.991-64.327 26.241-16.624-15.536-38.762-25.02-63.074-25.02-51.616.001-93.46 42.728-93.46 95.435z"
       style="fill:#ffc300;fill-opacity:1;stroke:none;stroke-width:12.8448;stroke-dasharray:none;stroke-opacity:1"
       id="path19" /><path
       d="M-322.238 208.717c-26.482 0-50.435 10.573-67.725 27.633l-.019-.019-153.048 129.546 153.049 128.35.046-.046c17.373 17.77 41.815 28.858 68.92 28.858 52.705 0 95.433-41.845 95.433-93.46 0-24.936-9.992-47.57-26.242-64.328 15.536-16.624 25.02-38.762 25.02-63.074 0-51.616-42.728-93.46-95.434-93.46"
       style="fill:#00b4f1;fill-opacity:1;stroke:none;stroke-width:12.8448;stroke-dasharray:none;stroke-opacity:1"
       id="path21" /><path
       d="M77.55 524.048c26.482 0 50.435-10.574 67.725-27.633l.019.019 153.212-128.537-153.213-129.36-.046.047c-17.373-17.77-41.815-28.858-68.92-28.858-52.705 0-95.433 41.845-95.433 93.46 0 24.936 9.992 47.57 26.242 64.328-15.536 16.624-25.02 38.762-25.02 63.074 0 51.616 42.728 93.46 95.434 93.46"
       style="fill:#91c300;fill-opacity:1;stroke:none;stroke-width:12.8448;stroke-dasharray:none;stroke-opacity:1"
       id="path23" /><path
       d="M-192.08 420.48V311.593s62.33-22.674 88.499-21.347c26 1.3 49 4.513 69.763 28.701 15.605 18.214 17 36.402 17 36.402l53-.16c3.391-27.343 17.167-59.108 27.868-52.703V429.93c-10.693 5.705-24.221-26.257-27.869-51.641l-53-.186s-1.026 22.064-17 38.87c-9.868 10.382-33.315 27.667-69.762 25.197-31.974-2.124-88.5-21.692-88.5-21.692"
       style="color:#000;opacity:.9;fill:#fff;fill-opacity:.97925;stroke:none;stroke-width:41.5247;stroke-dasharray:none;stroke-opacity:1"
       id="path25" /><path
       d="M-98.172 305.528c20.283 1.04 38.225 3.607 54.423 22.937 21.584 25.807 15.182 61.973 0 78.337-7.699 8.296-25.99 22.11-54.423 20.136z"
       style="color:#000;display:inline;opacity:.9;fill:maroon;fill-opacity:1;stroke:none;stroke-width:32.7881;stroke-dasharray:none;stroke-opacity:1;-inkscape-stroke:none"
       id="path27" /></g></svg>
