<?xml version="1.0" encoding="UTF-8" standalone="no"?>
<!-- Uploaded to: SVG Repo, www.svgrepo.com, Generator: SVG Repo Mixer Tools -->

<svg
   fill="#000000"
   version="1.1"
   id="Capa_1"
   width="800px"
   height="800px"
   viewBox="0 0 434.99 434.99"
   xml:space="preserve"
   sodipodi:docname="package-x-bottle-symbolic.svg"
   inkscape:version="1.4 (e7c3feb100, 2024-10-09)"
   xmlns:inkscape="http://www.inkscape.org/namespaces/inkscape"
   xmlns:sodipodi="http://sodipodi.sourceforge.net/DTD/sodipodi-0.dtd"
   xmlns="http://www.w3.org/2000/svg"
   xmlns:svg="http://www.w3.org/2000/svg"><defs
   id="defs2" /><sodipodi:namedview
   id="namedview2"
   pagecolor="#ffffff"
   bordercolor="#000000"
   borderopacity="0.25"
   inkscape:showpageshadow="2"
   inkscape:pageopacity="0.0"
   inkscape:pagecheckerboard="0"
   inkscape:deskcolor="#d1d1d1"
   inkscape:zoom="0.1767767"
   inkscape:cx="342.23968"
   inkscape:cy="1006.9201"
   inkscape:window-width="1920"
   inkscape:window-height="1011"
   inkscape:window-x="0"
   inkscape:window-y="0"
   inkscape:window-maximized="1"
   inkscape:current-layer="g1" />
<g
   id="g2"
   transform="matrix(0.78993222,-0.78993222,0.78993222,0.78993222,-134.71406,208.89858)">
	<g
   id="g1">
		<path
   d="m 257.8847,115.37892 c -1.58934,-1.10813 -4.97801,-3.33241 -4.97801,-3.33241 V 39.859827 h 3.02197 c 11.65387,0 12.62828,-8.235484 12.62828,-19.889354 0,-11.6528664 -0.97441,-22.3097135 -12.62828,-22.3097135 h -76.86833 c -11.65286,0 -15.2317,9.9356539 -15.2317,21.5885195 0,11.653871 3.57884,20.610548 15.2317,20.610548 h 3.02298 v 72.186683 c 0,0 -3.38967,2.22529 -4.97902,3.33241 -45.85798,31.96777 -50.80987,73.67858 -50.80987,90.12762 v 191.33344 c 0,20.89359 16.93729,37.83088 37.83087,37.83088 h 106.74042 c 20.89358,0 37.82987,-16.93729 37.82987,-37.83088 V 205.50654 c 0,-16.44904 -4.95189,-58.15985 -50.81088,-90.12762 z m 12.58049,241.62393 c -0.05,4.06851 -3.30026,7.36806 -7.36907,7.36806 h -93.96737 c -4.0688,0 -7.42014,-3.29955 -7.37006,-7.36806 l 1.38306,-112.37146 c -6.36636,-104.10632 110.0531,-109.40916 108.7065,0 z"
   id="path1"
   sodipodi:nodetypes="cccsssssscccsssssscsssssss"
   style="stroke-width:1.00464" />
	</g>
</g>
</svg>
