<?xml version="1.0" encoding="UTF-8" standalone="no"?>
<svg
   height="16px"
   viewBox="0 0 16 16"
   width="16px"
   version="1.1"
   id="svg2"
   sodipodi:docname="runner-backup.svg"
   inkscape:version="1.4 (e7c3feb100, 2024-10-09)"
   xmlns:inkscape="http://www.inkscape.org/namespaces/inkscape"
   xmlns:sodipodi="http://sodipodi.sourceforge.net/DTD/sodipodi-0.dtd"
   xmlns="http://www.w3.org/2000/svg"
   xmlns:svg="http://www.w3.org/2000/svg">
  <defs
     id="defs2" />
  <sodipodi:namedview
     id="namedview2"
     pagecolor="#ffffff"
     bordercolor="#000000"
     borderopacity="0.25"
     inkscape:showpageshadow="2"
     inkscape:pageopacity="0.0"
     inkscape:pagecheckerboard="0"
     inkscape:deskcolor="#d1d1d1"
     inkscape:zoom="4.4194174"
     inkscape:cx="-42.31327"
     inkscape:cy="-9.0509668"
     inkscape:window-width="1292"
     inkscape:window-height="991"
     inkscape:window-x="26"
     inkscape:window-y="23"
     inkscape:window-maximized="0"
     inkscape:current-layer="g2" />
  <g
     fill="#222222"
     id="g2">
    <path
       id="path3"
       d="M 12.960938,0 C 14.628906,0 16,1.371094 16,3.039062 v 9.881876 C 16,14.588906 14.628906,15.96 12.960938,15.96 H 3.039062 c -0.477445,0 -0.593749,-2 0,-2 h 9.921876 C 13.554688,13.96 14,13.514687 14,12.920938 V 3.039062 C 14,2.445312 13.554688,2 12.960938,2 H 3.039062 C 2.445312,2 2,2.445312 2,3.039062 V 4.900344 C 1.97378,5.896265 1.153198,6.3341549 0,6.7649254 V 3.039062 C 0,1.371094 1.371095,0 3.039062,0 Z"
       sodipodi:nodetypes="ssssssssssssccsss" />
    <path
       d="m 6,4 c 0.265625,0 0.519531,0.105469 0.707031,0.292969 l 3,3 c 0.390625,0.390625 0.390625,1.023437 0,1.414062 l -3,3 c -0.390625,0.390625 -1.023437,0.390625 -1.414062,0 -0.390625,-0.390625 -0.390625,-1.023437 0,-1.414062 L 6.585938,9 H 4 C 2.882812,9 2,9.882812 2,11 v 4.96 H 0 V 11 C 0,8.800781 1.800781,7 4,7 H 6.585938 L 5.292969,5.707031 C 4.902344,5.316406 4.902344,4.683594 5.292969,4.292969 5.480469,4.105469 5.734375,4 6,4 Z"
       style="fill:#2e3436;fill-rule:evenodd"
       id="path1"
       sodipodi:nodetypes="ssssssscssccsscsss" />
  </g>
</svg>
