<?xml version="1.0" encoding="UTF-8" standalone="no"?>
<svg
   height="16px"
   viewBox="0 0 16 16"
   width="16px"
   version="1.1"
   id="svg1"
   sodipodi:docname="set-wine-arch-symbolic.svg"
   inkscape:version="1.4 (e7c3feb100, 2024-10-09)"
   xmlns:inkscape="http://www.inkscape.org/namespaces/inkscape"
   xmlns:sodipodi="http://sodipodi.sourceforge.net/DTD/sodipodi-0.dtd"
   xmlns="http://www.w3.org/2000/svg"
   xmlns:svg="http://www.w3.org/2000/svg">
  <defs
     id="defs1" />
  <sodipodi:namedview
     id="namedview1"
     pagecolor="#ffffff"
     bordercolor="#000000"
     borderopacity="0.25"
     inkscape:showpageshadow="2"
     inkscape:pageopacity="0.0"
     inkscape:pagecheckerboard="0"
     inkscape:deskcolor="#d1d1d1"
     inkscape:zoom="25"
     inkscape:cx="13.38"
     inkscape:cy="6.72"
     inkscape:window-width="1920"
     inkscape:window-height="1011"
     inkscape:window-x="0"
     inkscape:window-y="0"
     inkscape:window-maximized="1"
     inkscape:current-layer="g1" />
  <g
     id="g9"
     transform="matrix(0.88888899,0,0,0.88888899,3.3333312,-3.426667)">
    <g
       id="g1"
       transform="translate(-6.7499992,0.8549999)">
      <g
         id="g17"
         transform="matrix(0.03515693,0,0,0.03515693,2.9998262,3)">
	<rect
   x="141.312"
   class="st0"
   width="32.771"
   height="71.682999"
   id="rect1"
   y="0"
   style="fill:#000000" />

	<rect
   x="206.853"
   class="st0"
   width="32.761002"
   height="71.682999"
   id="rect2"
   y="0"
   style="fill:#000000" />

	<rect
   x="272.38501"
   class="st0"
   width="32.761002"
   height="71.682999"
   id="rect3"
   y="0"
   style="fill:#000000" />

	<rect
   x="337.91699"
   class="st0"
   width="32.77"
   height="71.682999"
   id="rect4"
   y="0"
   style="fill:#000000" />

	<rect
   x="141.312"
   y="440.32599"
   class="st0"
   width="32.771"
   height="71.674004"
   id="rect5"
   style="fill:#000000" />

	<rect
   x="206.853"
   y="440.32599"
   class="st0"
   width="32.761002"
   height="71.674004"
   id="rect6"
   style="fill:#000000" />

	<rect
   x="272.38501"
   y="440.32599"
   class="st0"
   width="32.761002"
   height="71.674004"
   id="rect7"
   style="fill:#000000" />

	<rect
   x="337.91699"
   y="440.32599"
   class="st0"
   width="32.77"
   height="71.674004"
   id="rect8"
   style="fill:#000000" />

	<rect
   x="440.32101"
   y="141.30701"
   class="st0"
   width="71.674004"
   height="32.771"
   id="rect9"
   style="fill:#000000" />

	<rect
   x="440.32101"
   y="206.849"
   class="st0"
   width="71.674004"
   height="32.77"
   id="rect10"
   style="fill:#000000" />

	<rect
   x="440.32101"
   y="272.39001"
   class="st0"
   width="71.674004"
   height="32.761002"
   id="rect11"
   style="fill:#000000" />

	<rect
   x="440.32101"
   y="337.922"
   class="st0"
   width="71.674004"
   height="32.77"
   id="rect12"
   style="fill:#000000" />

	<rect
   x="0.0049999999"
   y="141.30701"
   class="st0"
   width="71.674004"
   height="32.771"
   id="rect13"
   style="fill:#000000" />

	<rect
   x="0.0049999999"
   y="206.849"
   class="st0"
   width="71.674004"
   height="32.77"
   id="rect14"
   style="fill:#000000" />

	<rect
   x="0.0049999999"
   y="272.39001"
   class="st0"
   width="71.674004"
   height="32.761002"
   id="rect15"
   style="fill:#000000" />

	<rect
   x="0.0049999999"
   y="337.922"
   class="st0"
   width="71.674004"
   height="32.77"
   id="rect16"
   style="fill:#000000" />

	<path
   class="st0"
   d="m 255.246,252.209 c 6.171,0 9.862,-3.586 9.862,-9.06 0,-5.485 -3.69,-9.176 -9.862,-9.176 h -11.16 c -0.4,0 -0.6,0.21 -0.6,0.61 v 17.025 c 0,0.4 0.2,0.601 0.6,0.601 z"
   id="path16"
   style="fill:#000000" />

	<path
   class="st0"
   d="m 92.165,419.84 h 327.67 V 92.17 H 92.165 Z M 367.359,130.568 c 8.479,0 15.356,6.867 15.356,15.356 0,8.488 -6.876,15.355 -15.356,15.355 -8.479,0 -15.356,-6.867 -15.356,-15.355 0.001,-8.49 6.877,-15.356 15.356,-15.356 z m 0,222.719 c 8.479,0 15.356,6.867 15.356,15.356 0,8.488 -6.876,15.355 -15.356,15.355 -8.479,0 -15.356,-6.867 -15.356,-15.355 0.001,-8.489 6.877,-15.356 15.356,-15.356 z M 290.821,222.318 c 0,-0.591 0.4,-0.991 1.001,-0.991 h 12.648 c 0.6,0 1.001,0.4 1.001,0.991 v 42.242 c 0,8.069 4.483,12.648 11.35,12.648 6.772,0 11.264,-4.578 11.264,-12.648 v -42.242 c 0,-0.591 0.4,-0.991 0.992,-0.991 h 12.646 c 0.601,0 0.992,0.4 0.992,0.991 v 41.851 c 0,16.825 -10.749,25.99 -25.895,25.99 -15.232,0 -25.999,-9.165 -25.999,-25.99 z m -61.975,0 c 0,-0.591 0.4,-0.991 1.001,-0.991 h 26.295 c 14.745,0 23.605,8.87 23.605,21.822 0,12.741 -8.966,21.707 -23.605,21.707 h -12.056 c -0.4,0 -0.6,0.2 -0.6,0.6 v 22.614 c 0,0.591 -0.391,0.991 -0.991,0.991 h -12.648 c -0.601,0 -1.001,-0.4 -1.001,-0.991 z m -61.173,14.554 c 3.586,-11.063 12.256,-16.633 24.112,-16.633 11.454,0 19.819,5.57 23.605,15.03 0.295,0.496 0.095,0.992 -0.496,1.202 l -10.863,4.874 c -0.592,0.296 -1.097,0.104 -1.393,-0.486 -1.889,-4.387 -5.084,-7.678 -10.759,-7.678 -5.274,0 -8.66,2.795 -10.157,7.468 -0.801,2.499 -1.097,4.883 -1.097,14.554 0,9.652 0.296,12.046 1.097,14.535 1.497,4.673 4.883,7.468 10.157,7.468 5.675,0 8.87,-3.291 10.759,-7.669 0.296,-0.6 0.801,-0.791 1.393,-0.496 l 10.863,4.874 c 0.591,0.21 0.791,0.706 0.496,1.202 -3.786,9.461 -12.152,15.04 -23.605,15.04 -11.856,0 -20.525,-5.58 -24.112,-16.643 -1.487,-4.368 -1.888,-7.859 -1.888,-18.312 0,-10.47 0.401,-13.942 1.888,-18.33 z M 144.64,130.568 c 8.489,0 15.365,6.876 15.365,15.356 0,8.478 -6.876,15.355 -15.365,15.355 -8.488,0 -15.355,-6.876 -15.355,-15.355 0,-8.48 6.867,-15.356 15.355,-15.356 z m 0,222.719 c 8.489,0 15.365,6.876 15.365,15.356 0,8.478 -6.876,15.355 -15.365,15.355 -8.488,0 -15.355,-6.877 -15.355,-15.355 0,-8.48 6.867,-15.356 15.355,-15.356 z"
   id="path17"
   style="fill:#000000" />

</g>
    </g>
  </g>
</svg>
