<?xml version="1.0" encoding="UTF-8" standalone="no"?>
<svg
   width="16"
   height="16"
   version="1.1"
   id="svg4"
   sodipodi:docname="template-default.svg"
   inkscape:version="1.4 (e7c3feb100, 2024-10-09)"
   xmlns:inkscape="http://www.inkscape.org/namespaces/inkscape"
   xmlns:sodipodi="http://sodipodi.sourceforge.net/DTD/sodipodi-0.dtd"
   xmlns="http://www.w3.org/2000/svg"
   xmlns:svg="http://www.w3.org/2000/svg">
  <defs
     id="defs4" />
  <sodipodi:namedview
     id="namedview4"
     pagecolor="#ffffff"
     bordercolor="#000000"
     borderopacity="0.25"
     inkscape:showpageshadow="2"
     inkscape:pageopacity="0.0"
     inkscape:pagecheckerboard="0"
     inkscape:deskcolor="#d1d1d1"
     inkscape:zoom="8.8388348"
     inkscape:cx="16.631151"
     inkscape:cy="14.934095"
     inkscape:window-width="1920"
     inkscape:window-height="1011"
     inkscape:window-x="0"
     inkscape:window-y="0"
     inkscape:window-maximized="1"
     inkscape:current-layer="g4" />
  <g
     fill="#474747"
     id="g4">
    <path
       id="path1"
       style="line-height:normal;font-variant-ligatures:normal;font-variant-position:normal;font-variant-caps:normal;font-variant-numeric:normal;font-variant-alternates:normal;font-feature-settings:normal;text-indent:0;text-align:start;text-decoration-line:none;text-decoration-style:solid;text-decoration-color:#000;text-transform:none;text-orientation:mixed;shape-padding:0;isolation:auto;mix-blend-mode:normal;marker:none"
       d="M 3.0253906 0 L 3.0585938 0.001953125 A 2.086 2.086 0 0 0 2.9003906 0.001953125 L 2.8808594 0.001953125 L 2.8554688 0.00390625 A 1.98 1.98 0 0 0 1 2.0449219 L 1 13.958984 A 1.981 1.981 0 0 0 3.0410156 16 L 11.439453 16 L 11.439453 14.001953 L 3.0117188 14.001953 C 3.0927187 14.000953 3.002 13.908281 3 13.988281 L 3 2.0117188 C 3.001 2.0667188 3.0268125 2.0169531 3.0078125 2.0019531 L 3.0078125 2 L 3.0097656 2 L 9.9746094 2 C 9.9646094 2 9.9894219 2.0109062 9.9824219 2.0039062 L 9.9902344 2.0117188 L 12.988281 5.0136719 L 12.996094 5.0195312 C 12.989094 5.0125313 13 5.0382969 13 5.0292969 L 13 9.5996094 L 15 9.5996094 L 15 5 A 1.991 1.991 0 0 0 14.382812 3.578125 L 11.425781 0.61914062 A 1.99 1.99 0 0 0 10.003906 0 L 9.9960938 0 L 3.0253906 0 z " />
    <path
       d="m 10.999939,7.0004846 c -0.261718,0 -0.519531,0.105468 -0.707031,0.292968 L 6.9999386,10.586422 5.7069706,9.2934526 c -0.390626,-0.390625 -1.023438,-0.390625 -1.414063,0 -0.390625,0.390625 -0.390625,1.0234384 0,1.4140634 l 2,2 c 0.390625,0.390625 1.023437,0.390625 1.414063,0 L 11.706971,8.7075156 c 0.390624,-0.390625 0.390624,-1.023438 0,-1.414063 -0.1875,-0.1875 -0.441407,-0.292968 -0.707032,-0.292968 z m 0,0"
       id="path2" />
  </g>
</svg>
