<?xml version="1.0" encoding="UTF-8" standalone="no"?>
<svg
   height="16px"
   viewBox="0 0 16 16"
   width="16px"
   version="1.1"
   id="svg2"
   sodipodi:docname="runner-download.svg"
   inkscape:version="1.4 (e7c3feb100, 2024-10-09)"
   xmlns:inkscape="http://www.inkscape.org/namespaces/inkscape"
   xmlns:sodipodi="http://sodipodi.sourceforge.net/DTD/sodipodi-0.dtd"
   xmlns="http://www.w3.org/2000/svg"
   xmlns:svg="http://www.w3.org/2000/svg">
  <defs
     id="defs2" />
  <sodipodi:namedview
     id="namedview2"
     pagecolor="#ffffff"
     bordercolor="#000000"
     borderopacity="0.25"
     inkscape:showpageshadow="2"
     inkscape:pageopacity="0.0"
     inkscape:pagecheckerboard="0"
     inkscape:deskcolor="#d1d1d1"
     inkscape:zoom="17.67767"
     inkscape:cx="2.6304372"
     inkscape:cy="19.289873"
     inkscape:window-width="1292"
     inkscape:window-height="991"
     inkscape:window-x="26"
     inkscape:window-y="23"
     inkscape:window-maximized="0"
     inkscape:current-layer="g2" />
  <g
     fill="#222222"
     id="g2">
    <path
       d="m -0.02,12.98 v -10 c 0,-0.832 0.293325,-1.5413325 0.88,-2.128 0.586675,-0.5866675 1.296,-0.88 2.128,-0.88 h 10 c 0.821325,0 1.525325,0.2933325 2.112,0.88 0.586675,0.5866675 0.88,1.296 0.88,2.128 v 10 c 0,0.832 -0.293325,1.536 -0.88,2.112 -0.586675,0.576 -1.290675,0.869325 -2.112,0.88 h -10 c -0.832,0 -1.541332,-0.293333 -2.128,-0.88 -0.586668,-0.586667 -0.88,-1.290667 -0.88,-2.112 z m 2,0 c 0,0.277332 0.096,0.512 0.288,0.704 0.192,0.192 0.432,0.288 0.72,0.288 h 10 c 0.266675,0 0.501325,-0.096 0.704,-0.288 0.20275,-0.192 0.298675,-0.426668 0.288,-0.704 v -10 C 13.98,2.7026667 13.884,2.468 13.692,2.276 13.5,2.084 13.265332,1.9826668 12.988,1.972 h -10 C 2.710675,1.972 2.470675,2.073325 2.268,2.276 2.06525,2.478675 1.969325,2.7133325 1.98,2.98 Z"
       id="path1"
       style="stroke-width:0.5"
       sodipodi:nodetypes="ssssssssscsssssssscsscsscs" />
    <path
       d="m 11.979997,8.9257902 c 0,0.265625 -0.1055,0.51953 -0.292975,0.70703 l -3,3.0000008 c -0.390625,0.390625 -1.023425,0.390625 -1.41405,0 l -3,-3.0000008 c -0.390625,-0.390625 -0.390625,-1.0234375 0,-1.4140625 0.390625,-0.390625 1.023425,-0.390625 1.41405,0 l 1.292975,1.29297 V 3.8056814 c 0,-0.9891175 2.000008,-1.1243575 2.000008,0.043575 v 5.6624718 l 1.292967,-1.29297 c 0.390625,-0.390625 1.023425,-0.390625 1.41405,0 0.1875,0.1875 0.292975,0.4414075 0.292975,0.707032 z"
       style="fill:#2e3436;fill-rule:evenodd;stroke-width:1"
       id="path1-7"
       sodipodi:nodetypes="ssssssscsscsss" />
  </g>
</svg>
